<mxfile host="Electron" modified="2023-04-26T01:48:11.891Z" agent="Mozilla/5.0 (Windows NT 10.0; Win64; x64) AppleWebKit/537.36 (KHTML, like Gecko) draw.io/21.1.2 Chrome/106.0.5249.199 Electron/21.4.3 Safari/537.36" etag="3DwW_Thrfj9yh8N_rYsq" version="21.1.2" type="device">
  <diagram name="Page-1" id="Rck_diRTb7xteAQt73CQ">
    <mxGraphModel dx="2074" dy="854" grid="1" gridSize="10" guides="1" tooltips="1" connect="1" arrows="1" fold="1" page="1" pageScale="1" pageWidth="850" pageHeight="1100" math="0" shadow="0">
      <root>
        <mxCell id="0" />
        <mxCell id="1" parent="0" />
        <mxCell id="HZa0m9FP3mSwSl7YWpL0-22" style="edgeStyle=orthogonalEdgeStyle;rounded=0;orthogonalLoop=1;jettySize=auto;html=1;entryX=0;entryY=0.5;entryDx=0;entryDy=0;entryPerimeter=0;" parent="1" source="HZa0m9FP3mSwSl7YWpL0-17" target="HZa0m9FP3mSwSl7YWpL0-20" edge="1">
          <mxGeometry relative="1" as="geometry" />
        </mxCell>
        <mxCell id="HZa0m9FP3mSwSl7YWpL0-17" value="v1" style="outlineConnect=0;dashed=0;verticalLabelPosition=bottom;verticalAlign=top;align=center;html=1;shape=mxgraph.aws3.ec2;fillColor=#F58534;gradientColor=none;" parent="1" vertex="1">
          <mxGeometry x="250" y="320" width="76.5" height="93" as="geometry" />
        </mxCell>
        <mxCell id="HZa0m9FP3mSwSl7YWpL0-25" style="edgeStyle=orthogonalEdgeStyle;rounded=0;orthogonalLoop=1;jettySize=auto;html=1;" parent="1" source="HZa0m9FP3mSwSl7YWpL0-20" target="HZa0m9FP3mSwSl7YWpL0-24" edge="1">
          <mxGeometry relative="1" as="geometry" />
        </mxCell>
        <mxCell id="HZa0m9FP3mSwSl7YWpL0-20" value="v1" style="outlineConnect=0;dashed=0;verticalLabelPosition=bottom;verticalAlign=top;align=center;html=1;shape=mxgraph.aws3.ec2;fillColor=#f58534;gradientColor=none;" parent="1" vertex="1">
          <mxGeometry x="423.5" y="320" width="76.5" height="93" as="geometry" />
        </mxCell>
        <mxCell id="HZa0m9FP3mSwSl7YWpL0-56" style="edgeStyle=orthogonalEdgeStyle;rounded=0;orthogonalLoop=1;jettySize=auto;html=1;entryX=0;entryY=0.5;entryDx=0;entryDy=0;entryPerimeter=0;" parent="1" source="HZa0m9FP3mSwSl7YWpL0-24" target="HZa0m9FP3mSwSl7YWpL0-49" edge="1">
          <mxGeometry relative="1" as="geometry" />
        </mxCell>
        <mxCell id="HZa0m9FP3mSwSl7YWpL0-24" value="v1" style="outlineConnect=0;dashed=0;verticalLabelPosition=bottom;verticalAlign=top;align=center;html=1;shape=mxgraph.aws3.ec2;fillColor=#a3a3a3;gradientColor=none;" parent="1" vertex="1">
          <mxGeometry x="600" y="320" width="76.5" height="93" as="geometry" />
        </mxCell>
        <mxCell id="HZa0m9FP3mSwSl7YWpL0-28" style="edgeStyle=orthogonalEdgeStyle;rounded=0;orthogonalLoop=1;jettySize=auto;html=1;entryX=0;entryY=0.5;entryDx=0;entryDy=0;entryPerimeter=0;" parent="1" source="HZa0m9FP3mSwSl7YWpL0-29" target="HZa0m9FP3mSwSl7YWpL0-31" edge="1">
          <mxGeometry relative="1" as="geometry" />
        </mxCell>
        <mxCell id="HZa0m9FP3mSwSl7YWpL0-29" value="v1" style="outlineConnect=0;dashed=0;verticalLabelPosition=bottom;verticalAlign=top;align=center;html=1;shape=mxgraph.aws3.ec2;fillColor=#F58534;gradientColor=none;" parent="1" vertex="1">
          <mxGeometry x="248.5" y="440" width="76.5" height="93" as="geometry" />
        </mxCell>
        <mxCell id="HZa0m9FP3mSwSl7YWpL0-30" style="edgeStyle=orthogonalEdgeStyle;rounded=0;orthogonalLoop=1;jettySize=auto;html=1;" parent="1" source="HZa0m9FP3mSwSl7YWpL0-31" target="HZa0m9FP3mSwSl7YWpL0-32" edge="1">
          <mxGeometry relative="1" as="geometry" />
        </mxCell>
        <mxCell id="HZa0m9FP3mSwSl7YWpL0-31" value="v1" style="outlineConnect=0;dashed=0;verticalLabelPosition=bottom;verticalAlign=top;align=center;html=1;shape=mxgraph.aws3.ec2;fillColor=#f58534;gradientColor=none;" parent="1" vertex="1">
          <mxGeometry x="422" y="440" width="76.5" height="93" as="geometry" />
        </mxCell>
        <mxCell id="HZa0m9FP3mSwSl7YWpL0-57" style="edgeStyle=orthogonalEdgeStyle;rounded=0;orthogonalLoop=1;jettySize=auto;html=1;" parent="1" source="HZa0m9FP3mSwSl7YWpL0-32" target="HZa0m9FP3mSwSl7YWpL0-51" edge="1">
          <mxGeometry relative="1" as="geometry" />
        </mxCell>
        <mxCell id="HZa0m9FP3mSwSl7YWpL0-32" value="v1" style="outlineConnect=0;dashed=0;verticalLabelPosition=bottom;verticalAlign=top;align=center;html=1;shape=mxgraph.aws3.ec2;fillColor=#a3a3a3;gradientColor=none;" parent="1" vertex="1">
          <mxGeometry x="598.5" y="440" width="76.5" height="93" as="geometry" />
        </mxCell>
        <mxCell id="HZa0m9FP3mSwSl7YWpL0-33" style="edgeStyle=orthogonalEdgeStyle;rounded=0;orthogonalLoop=1;jettySize=auto;html=1;entryX=0;entryY=0.5;entryDx=0;entryDy=0;entryPerimeter=0;" parent="1" source="HZa0m9FP3mSwSl7YWpL0-34" target="HZa0m9FP3mSwSl7YWpL0-36" edge="1">
          <mxGeometry relative="1" as="geometry" />
        </mxCell>
        <mxCell id="HZa0m9FP3mSwSl7YWpL0-34" value="v1" style="outlineConnect=0;dashed=0;verticalLabelPosition=bottom;verticalAlign=top;align=center;html=1;shape=mxgraph.aws3.ec2;fillColor=#F58534;gradientColor=none;" parent="1" vertex="1">
          <mxGeometry x="251.75" y="560" width="76.5" height="93" as="geometry" />
        </mxCell>
        <mxCell id="HZa0m9FP3mSwSl7YWpL0-35" style="edgeStyle=orthogonalEdgeStyle;rounded=0;orthogonalLoop=1;jettySize=auto;html=1;" parent="1" source="HZa0m9FP3mSwSl7YWpL0-36" target="HZa0m9FP3mSwSl7YWpL0-37" edge="1">
          <mxGeometry relative="1" as="geometry" />
        </mxCell>
        <mxCell id="HZa0m9FP3mSwSl7YWpL0-36" value="v1" style="outlineConnect=0;dashed=0;verticalLabelPosition=bottom;verticalAlign=top;align=center;html=1;shape=mxgraph.aws3.ec2;fillColor=#f58534;gradientColor=none;" parent="1" vertex="1">
          <mxGeometry x="425.25" y="560" width="76.5" height="93" as="geometry" />
        </mxCell>
        <mxCell id="HZa0m9FP3mSwSl7YWpL0-58" style="edgeStyle=orthogonalEdgeStyle;rounded=0;orthogonalLoop=1;jettySize=auto;html=1;entryX=0;entryY=0.5;entryDx=0;entryDy=0;entryPerimeter=0;" parent="1" source="HZa0m9FP3mSwSl7YWpL0-37" target="HZa0m9FP3mSwSl7YWpL0-53" edge="1">
          <mxGeometry relative="1" as="geometry" />
        </mxCell>
        <mxCell id="HZa0m9FP3mSwSl7YWpL0-37" value="v1" style="outlineConnect=0;dashed=0;verticalLabelPosition=bottom;verticalAlign=top;align=center;html=1;shape=mxgraph.aws3.ec2;fillColor=#f58534;gradientColor=none;" parent="1" vertex="1">
          <mxGeometry x="601.75" y="560" width="76.5" height="93" as="geometry" />
        </mxCell>
        <mxCell id="HZa0m9FP3mSwSl7YWpL0-38" style="edgeStyle=orthogonalEdgeStyle;rounded=0;orthogonalLoop=1;jettySize=auto;html=1;entryX=0;entryY=0.5;entryDx=0;entryDy=0;entryPerimeter=0;" parent="1" source="HZa0m9FP3mSwSl7YWpL0-39" target="HZa0m9FP3mSwSl7YWpL0-41" edge="1">
          <mxGeometry relative="1" as="geometry" />
        </mxCell>
        <mxCell id="HZa0m9FP3mSwSl7YWpL0-39" value="v1" style="outlineConnect=0;dashed=0;verticalLabelPosition=bottom;verticalAlign=top;align=center;html=1;shape=mxgraph.aws3.ec2;fillColor=#F58534;gradientColor=none;" parent="1" vertex="1">
          <mxGeometry x="251.75" y="680" width="76.5" height="93" as="geometry" />
        </mxCell>
        <mxCell id="HZa0m9FP3mSwSl7YWpL0-40" style="edgeStyle=orthogonalEdgeStyle;rounded=0;orthogonalLoop=1;jettySize=auto;html=1;" parent="1" source="HZa0m9FP3mSwSl7YWpL0-41" target="HZa0m9FP3mSwSl7YWpL0-42" edge="1">
          <mxGeometry relative="1" as="geometry" />
        </mxCell>
        <mxCell id="HZa0m9FP3mSwSl7YWpL0-41" value="v1" style="outlineConnect=0;dashed=0;verticalLabelPosition=bottom;verticalAlign=top;align=center;html=1;shape=mxgraph.aws3.ec2;fillColor=#f58534;gradientColor=none;" parent="1" vertex="1">
          <mxGeometry x="425.25" y="680" width="76.5" height="93" as="geometry" />
        </mxCell>
        <mxCell id="HZa0m9FP3mSwSl7YWpL0-59" style="edgeStyle=orthogonalEdgeStyle;rounded=0;orthogonalLoop=1;jettySize=auto;html=1;entryX=0;entryY=0.5;entryDx=0;entryDy=0;entryPerimeter=0;" parent="1" source="HZa0m9FP3mSwSl7YWpL0-42" target="HZa0m9FP3mSwSl7YWpL0-55" edge="1">
          <mxGeometry relative="1" as="geometry" />
        </mxCell>
        <mxCell id="HZa0m9FP3mSwSl7YWpL0-42" value="v1" style="outlineConnect=0;dashed=0;verticalLabelPosition=bottom;verticalAlign=top;align=center;html=1;shape=mxgraph.aws3.ec2;fillColor=#f58534;gradientColor=none;" parent="1" vertex="1">
          <mxGeometry x="601.75" y="680" width="76.5" height="93" as="geometry" />
        </mxCell>
        <mxCell id="HZa0m9FP3mSwSl7YWpL0-43" value="Rolling with additional batches deployment" style="text;html=1;strokeColor=none;fillColor=none;align=center;verticalAlign=middle;whiteSpace=wrap;rounded=0;fontSize=30;fontStyle=1" parent="1" vertex="1">
          <mxGeometry x="248.5" y="270" width="1121.5" height="30" as="geometry" />
        </mxCell>
        <mxCell id="HZa0m9FP3mSwSl7YWpL0-67" style="edgeStyle=orthogonalEdgeStyle;rounded=0;orthogonalLoop=1;jettySize=auto;html=1;entryX=0;entryY=0.5;entryDx=0;entryDy=0;entryPerimeter=0;" parent="1" source="HZa0m9FP3mSwSl7YWpL0-49" target="HZa0m9FP3mSwSl7YWpL0-60" edge="1">
          <mxGeometry relative="1" as="geometry" />
        </mxCell>
        <mxCell id="HZa0m9FP3mSwSl7YWpL0-49" value="v2" style="outlineConnect=0;dashed=0;verticalLabelPosition=bottom;verticalAlign=top;align=center;html=1;shape=mxgraph.aws3.ec2;fillColor=#33FF33;gradientColor=none;" parent="1" vertex="1">
          <mxGeometry x="788.5" y="320" width="76.5" height="93" as="geometry" />
        </mxCell>
        <mxCell id="HZa0m9FP3mSwSl7YWpL0-66" style="edgeStyle=orthogonalEdgeStyle;rounded=0;orthogonalLoop=1;jettySize=auto;html=1;entryX=0;entryY=0.5;entryDx=0;entryDy=0;entryPerimeter=0;" parent="1" source="HZa0m9FP3mSwSl7YWpL0-51" target="HZa0m9FP3mSwSl7YWpL0-61" edge="1">
          <mxGeometry relative="1" as="geometry" />
        </mxCell>
        <mxCell id="HZa0m9FP3mSwSl7YWpL0-51" value="v2" style="outlineConnect=0;dashed=0;verticalLabelPosition=bottom;verticalAlign=top;align=center;html=1;shape=mxgraph.aws3.ec2;fillColor=#33FF33;gradientColor=none;" parent="1" vertex="1">
          <mxGeometry x="788.5" y="440" width="76.5" height="93" as="geometry" />
        </mxCell>
        <mxCell id="HZa0m9FP3mSwSl7YWpL0-65" style="edgeStyle=orthogonalEdgeStyle;rounded=0;orthogonalLoop=1;jettySize=auto;html=1;entryX=0;entryY=0.5;entryDx=0;entryDy=0;entryPerimeter=0;" parent="1" source="HZa0m9FP3mSwSl7YWpL0-53" target="HZa0m9FP3mSwSl7YWpL0-62" edge="1">
          <mxGeometry relative="1" as="geometry" />
        </mxCell>
        <mxCell id="HZa0m9FP3mSwSl7YWpL0-53" value="v1" style="outlineConnect=0;dashed=0;verticalLabelPosition=bottom;verticalAlign=top;align=center;html=1;shape=mxgraph.aws3.ec2;fillColor=#f58534;gradientColor=none;" parent="1" vertex="1">
          <mxGeometry x="791.75" y="560" width="76.5" height="93" as="geometry" />
        </mxCell>
        <mxCell id="HZa0m9FP3mSwSl7YWpL0-64" style="edgeStyle=orthogonalEdgeStyle;rounded=0;orthogonalLoop=1;jettySize=auto;html=1;entryX=0;entryY=0.5;entryDx=0;entryDy=0;entryPerimeter=0;" parent="1" source="HZa0m9FP3mSwSl7YWpL0-55" target="HZa0m9FP3mSwSl7YWpL0-63" edge="1">
          <mxGeometry relative="1" as="geometry" />
        </mxCell>
        <mxCell id="HZa0m9FP3mSwSl7YWpL0-55" value="v1" style="outlineConnect=0;dashed=0;verticalLabelPosition=bottom;verticalAlign=top;align=center;html=1;shape=mxgraph.aws3.ec2;fillColor=#f58534;gradientColor=none;" parent="1" vertex="1">
          <mxGeometry x="791.75" y="680" width="76.5" height="93" as="geometry" />
        </mxCell>
        <mxCell id="jfRhlss4ofMKmIL098yf-21" style="edgeStyle=orthogonalEdgeStyle;rounded=0;orthogonalLoop=1;jettySize=auto;html=1;entryX=0;entryY=0.5;entryDx=0;entryDy=0;entryPerimeter=0;" edge="1" parent="1" source="HZa0m9FP3mSwSl7YWpL0-60" target="jfRhlss4ofMKmIL098yf-9">
          <mxGeometry relative="1" as="geometry" />
        </mxCell>
        <mxCell id="HZa0m9FP3mSwSl7YWpL0-60" value="v2" style="outlineConnect=0;dashed=0;verticalLabelPosition=bottom;verticalAlign=top;align=center;html=1;shape=mxgraph.aws3.ec2;fillColor=#33FF33;gradientColor=none;" parent="1" vertex="1">
          <mxGeometry x="970.75" y="320" width="76.5" height="93" as="geometry" />
        </mxCell>
        <mxCell id="jfRhlss4ofMKmIL098yf-22" style="edgeStyle=orthogonalEdgeStyle;rounded=0;orthogonalLoop=1;jettySize=auto;html=1;entryX=0;entryY=0.5;entryDx=0;entryDy=0;entryPerimeter=0;" edge="1" parent="1" source="HZa0m9FP3mSwSl7YWpL0-61" target="jfRhlss4ofMKmIL098yf-10">
          <mxGeometry relative="1" as="geometry" />
        </mxCell>
        <mxCell id="HZa0m9FP3mSwSl7YWpL0-61" value="v2" style="outlineConnect=0;dashed=0;verticalLabelPosition=bottom;verticalAlign=top;align=center;html=1;shape=mxgraph.aws3.ec2;fillColor=#33FF33;gradientColor=none;" parent="1" vertex="1">
          <mxGeometry x="969.13" y="440" width="76.5" height="93" as="geometry" />
        </mxCell>
        <mxCell id="jfRhlss4ofMKmIL098yf-23" style="edgeStyle=orthogonalEdgeStyle;rounded=0;orthogonalLoop=1;jettySize=auto;html=1;entryX=0;entryY=0.5;entryDx=0;entryDy=0;entryPerimeter=0;" edge="1" parent="1" source="HZa0m9FP3mSwSl7YWpL0-62" target="jfRhlss4ofMKmIL098yf-11">
          <mxGeometry relative="1" as="geometry" />
        </mxCell>
        <mxCell id="HZa0m9FP3mSwSl7YWpL0-62" value="v1" style="outlineConnect=0;dashed=0;verticalLabelPosition=bottom;verticalAlign=top;align=center;html=1;shape=mxgraph.aws3.ec2;fillColor=#a3a3a3;gradientColor=none;" parent="1" vertex="1">
          <mxGeometry x="972.38" y="560" width="76.5" height="93" as="geometry" />
        </mxCell>
        <mxCell id="jfRhlss4ofMKmIL098yf-24" style="edgeStyle=orthogonalEdgeStyle;rounded=0;orthogonalLoop=1;jettySize=auto;html=1;entryX=0;entryY=0.5;entryDx=0;entryDy=0;entryPerimeter=0;" edge="1" parent="1" source="HZa0m9FP3mSwSl7YWpL0-63" target="jfRhlss4ofMKmIL098yf-12">
          <mxGeometry relative="1" as="geometry" />
        </mxCell>
        <mxCell id="HZa0m9FP3mSwSl7YWpL0-63" value="v1" style="outlineConnect=0;dashed=0;verticalLabelPosition=bottom;verticalAlign=top;align=center;html=1;shape=mxgraph.aws3.ec2;fillColor=#a3a3a3;gradientColor=none;" parent="1" vertex="1">
          <mxGeometry x="972.38" y="680" width="76.5" height="93" as="geometry" />
        </mxCell>
        <mxCell id="jfRhlss4ofMKmIL098yf-39" style="edgeStyle=orthogonalEdgeStyle;rounded=0;orthogonalLoop=1;jettySize=auto;html=1;entryX=0;entryY=0.5;entryDx=0;entryDy=0;entryPerimeter=0;" edge="1" parent="1" source="jfRhlss4ofMKmIL098yf-1" target="jfRhlss4ofMKmIL098yf-3">
          <mxGeometry relative="1" as="geometry" />
        </mxCell>
        <mxCell id="jfRhlss4ofMKmIL098yf-1" value="v2" style="outlineConnect=0;dashed=0;verticalLabelPosition=bottom;verticalAlign=top;align=center;html=1;shape=mxgraph.aws3.ec2;fillColor=#33FF33;gradientColor=none;" vertex="1" parent="1">
          <mxGeometry x="426.75" y="800" width="76.5" height="93" as="geometry" />
        </mxCell>
        <mxCell id="jfRhlss4ofMKmIL098yf-40" style="edgeStyle=orthogonalEdgeStyle;rounded=0;orthogonalLoop=1;jettySize=auto;html=1;" edge="1" parent="1" source="jfRhlss4ofMKmIL098yf-2">
          <mxGeometry relative="1" as="geometry">
            <mxPoint x="600" y="966.5" as="targetPoint" />
          </mxGeometry>
        </mxCell>
        <mxCell id="jfRhlss4ofMKmIL098yf-2" value="v2" style="outlineConnect=0;dashed=0;verticalLabelPosition=bottom;verticalAlign=top;align=center;html=1;shape=mxgraph.aws3.ec2;fillColor=#33ff33;gradientColor=none;" vertex="1" parent="1">
          <mxGeometry x="425" y="920" width="76.5" height="93" as="geometry" />
        </mxCell>
        <mxCell id="jfRhlss4ofMKmIL098yf-41" style="edgeStyle=orthogonalEdgeStyle;rounded=0;orthogonalLoop=1;jettySize=auto;html=1;" edge="1" parent="1" source="jfRhlss4ofMKmIL098yf-3">
          <mxGeometry relative="1" as="geometry">
            <mxPoint x="790" y="846.5" as="targetPoint" />
          </mxGeometry>
        </mxCell>
        <mxCell id="jfRhlss4ofMKmIL098yf-3" value="v2" style="outlineConnect=0;dashed=0;verticalLabelPosition=bottom;verticalAlign=top;align=center;html=1;shape=mxgraph.aws3.ec2;fillColor=#33FF33;gradientColor=none;" vertex="1" parent="1">
          <mxGeometry x="602.63" y="800" width="76.5" height="93" as="geometry" />
        </mxCell>
        <mxCell id="jfRhlss4ofMKmIL098yf-42" style="edgeStyle=orthogonalEdgeStyle;rounded=0;orthogonalLoop=1;jettySize=auto;html=1;entryX=0;entryY=0.5;entryDx=0;entryDy=0;entryPerimeter=0;" edge="1" parent="1" source="jfRhlss4ofMKmIL098yf-4" target="jfRhlss4ofMKmIL098yf-6">
          <mxGeometry relative="1" as="geometry" />
        </mxCell>
        <mxCell id="jfRhlss4ofMKmIL098yf-4" value="v2" style="outlineConnect=0;dashed=0;verticalLabelPosition=bottom;verticalAlign=top;align=center;html=1;shape=mxgraph.aws3.ec2;fillColor=#33ff33;gradientColor=none;" vertex="1" parent="1">
          <mxGeometry x="600.88" y="920" width="76.5" height="93" as="geometry" />
        </mxCell>
        <mxCell id="jfRhlss4ofMKmIL098yf-43" style="edgeStyle=orthogonalEdgeStyle;rounded=0;orthogonalLoop=1;jettySize=auto;html=1;entryX=0;entryY=0.5;entryDx=0;entryDy=0;entryPerimeter=0;" edge="1" parent="1" source="jfRhlss4ofMKmIL098yf-5" target="jfRhlss4ofMKmIL098yf-7">
          <mxGeometry relative="1" as="geometry" />
        </mxCell>
        <mxCell id="jfRhlss4ofMKmIL098yf-5" value="v2" style="outlineConnect=0;dashed=0;verticalLabelPosition=bottom;verticalAlign=top;align=center;html=1;shape=mxgraph.aws3.ec2;fillColor=#33FF33;gradientColor=none;" vertex="1" parent="1">
          <mxGeometry x="793.5" y="800" width="76.5" height="93" as="geometry" />
        </mxCell>
        <mxCell id="jfRhlss4ofMKmIL098yf-44" style="edgeStyle=orthogonalEdgeStyle;rounded=0;orthogonalLoop=1;jettySize=auto;html=1;entryX=0;entryY=0.5;entryDx=0;entryDy=0;entryPerimeter=0;" edge="1" parent="1" source="jfRhlss4ofMKmIL098yf-6" target="jfRhlss4ofMKmIL098yf-8">
          <mxGeometry relative="1" as="geometry" />
        </mxCell>
        <mxCell id="jfRhlss4ofMKmIL098yf-6" value="v2" style="outlineConnect=0;dashed=0;verticalLabelPosition=bottom;verticalAlign=top;align=center;html=1;shape=mxgraph.aws3.ec2;fillColor=#33ff33;gradientColor=none;" vertex="1" parent="1">
          <mxGeometry x="791.75" y="920" width="76.5" height="93" as="geometry" />
        </mxCell>
        <mxCell id="jfRhlss4ofMKmIL098yf-25" style="edgeStyle=orthogonalEdgeStyle;rounded=0;orthogonalLoop=1;jettySize=auto;html=1;entryX=0;entryY=0.5;entryDx=0;entryDy=0;entryPerimeter=0;" edge="1" parent="1" source="jfRhlss4ofMKmIL098yf-7" target="jfRhlss4ofMKmIL098yf-13">
          <mxGeometry relative="1" as="geometry" />
        </mxCell>
        <mxCell id="jfRhlss4ofMKmIL098yf-7" value="v2" style="outlineConnect=0;dashed=0;verticalLabelPosition=bottom;verticalAlign=top;align=center;html=1;shape=mxgraph.aws3.ec2;fillColor=#33FF33;gradientColor=none;" vertex="1" parent="1">
          <mxGeometry x="974.13" y="800" width="76.5" height="93" as="geometry" />
        </mxCell>
        <mxCell id="jfRhlss4ofMKmIL098yf-26" style="edgeStyle=orthogonalEdgeStyle;rounded=0;orthogonalLoop=1;jettySize=auto;html=1;entryX=0;entryY=0.5;entryDx=0;entryDy=0;entryPerimeter=0;" edge="1" parent="1" source="jfRhlss4ofMKmIL098yf-8" target="jfRhlss4ofMKmIL098yf-14">
          <mxGeometry relative="1" as="geometry" />
        </mxCell>
        <mxCell id="jfRhlss4ofMKmIL098yf-8" value="v2" style="outlineConnect=0;dashed=0;verticalLabelPosition=bottom;verticalAlign=top;align=center;html=1;shape=mxgraph.aws3.ec2;fillColor=#33ff33;gradientColor=none;" vertex="1" parent="1">
          <mxGeometry x="972.38" y="920" width="76.5" height="93" as="geometry" />
        </mxCell>
        <mxCell id="jfRhlss4ofMKmIL098yf-27" style="edgeStyle=orthogonalEdgeStyle;rounded=0;orthogonalLoop=1;jettySize=auto;html=1;entryX=0;entryY=0.5;entryDx=0;entryDy=0;entryPerimeter=0;" edge="1" parent="1" source="jfRhlss4ofMKmIL098yf-9" target="jfRhlss4ofMKmIL098yf-15">
          <mxGeometry relative="1" as="geometry" />
        </mxCell>
        <mxCell id="jfRhlss4ofMKmIL098yf-9" value="v2" style="outlineConnect=0;dashed=0;verticalLabelPosition=bottom;verticalAlign=top;align=center;html=1;shape=mxgraph.aws3.ec2;fillColor=#33FF33;gradientColor=none;" vertex="1" parent="1">
          <mxGeometry x="1131.62" y="320" width="76.5" height="93" as="geometry" />
        </mxCell>
        <mxCell id="jfRhlss4ofMKmIL098yf-28" style="edgeStyle=orthogonalEdgeStyle;rounded=0;orthogonalLoop=1;jettySize=auto;html=1;entryX=0;entryY=0.5;entryDx=0;entryDy=0;entryPerimeter=0;" edge="1" parent="1" source="jfRhlss4ofMKmIL098yf-10" target="jfRhlss4ofMKmIL098yf-16">
          <mxGeometry relative="1" as="geometry" />
        </mxCell>
        <mxCell id="jfRhlss4ofMKmIL098yf-10" value="v2" style="outlineConnect=0;dashed=0;verticalLabelPosition=bottom;verticalAlign=top;align=center;html=1;shape=mxgraph.aws3.ec2;fillColor=#33FF33;gradientColor=none;" vertex="1" parent="1">
          <mxGeometry x="1130" y="440" width="76.5" height="93" as="geometry" />
        </mxCell>
        <mxCell id="jfRhlss4ofMKmIL098yf-29" style="edgeStyle=orthogonalEdgeStyle;rounded=0;orthogonalLoop=1;jettySize=auto;html=1;entryX=0;entryY=0.5;entryDx=0;entryDy=0;entryPerimeter=0;" edge="1" parent="1" source="jfRhlss4ofMKmIL098yf-11" target="jfRhlss4ofMKmIL098yf-17">
          <mxGeometry relative="1" as="geometry" />
        </mxCell>
        <mxCell id="jfRhlss4ofMKmIL098yf-11" value="v2" style="outlineConnect=0;dashed=0;verticalLabelPosition=bottom;verticalAlign=top;align=center;html=1;shape=mxgraph.aws3.ec2;fillColor=#33ff33;gradientColor=none;" vertex="1" parent="1">
          <mxGeometry x="1133.25" y="560" width="76.5" height="93" as="geometry" />
        </mxCell>
        <mxCell id="jfRhlss4ofMKmIL098yf-30" style="edgeStyle=orthogonalEdgeStyle;rounded=0;orthogonalLoop=1;jettySize=auto;html=1;entryX=0;entryY=0.5;entryDx=0;entryDy=0;entryPerimeter=0;" edge="1" parent="1" source="jfRhlss4ofMKmIL098yf-12" target="jfRhlss4ofMKmIL098yf-18">
          <mxGeometry relative="1" as="geometry" />
        </mxCell>
        <mxCell id="jfRhlss4ofMKmIL098yf-12" value="v2" style="outlineConnect=0;dashed=0;verticalLabelPosition=bottom;verticalAlign=top;align=center;html=1;shape=mxgraph.aws3.ec2;fillColor=#33ff33;gradientColor=none;" vertex="1" parent="1">
          <mxGeometry x="1133.25" y="680" width="76.5" height="93" as="geometry" />
        </mxCell>
        <mxCell id="jfRhlss4ofMKmIL098yf-33" style="edgeStyle=orthogonalEdgeStyle;rounded=0;orthogonalLoop=1;jettySize=auto;html=1;" edge="1" parent="1" source="jfRhlss4ofMKmIL098yf-13" target="jfRhlss4ofMKmIL098yf-31">
          <mxGeometry relative="1" as="geometry" />
        </mxCell>
        <mxCell id="jfRhlss4ofMKmIL098yf-13" value="v2" style="outlineConnect=0;dashed=0;verticalLabelPosition=bottom;verticalAlign=top;align=center;html=1;shape=mxgraph.aws3.ec2;fillColor=#33FF33;gradientColor=none;" vertex="1" parent="1">
          <mxGeometry x="1135" y="800" width="76.5" height="93" as="geometry" />
        </mxCell>
        <mxCell id="jfRhlss4ofMKmIL098yf-34" style="edgeStyle=orthogonalEdgeStyle;rounded=0;orthogonalLoop=1;jettySize=auto;html=1;" edge="1" parent="1" source="jfRhlss4ofMKmIL098yf-14" target="jfRhlss4ofMKmIL098yf-32">
          <mxGeometry relative="1" as="geometry" />
        </mxCell>
        <mxCell id="jfRhlss4ofMKmIL098yf-14" value="v2" style="outlineConnect=0;dashed=0;verticalLabelPosition=bottom;verticalAlign=top;align=center;html=1;shape=mxgraph.aws3.ec2;fillColor=#33ff33;gradientColor=none;" vertex="1" parent="1">
          <mxGeometry x="1133.25" y="920" width="76.5" height="93" as="geometry" />
        </mxCell>
        <mxCell id="jfRhlss4ofMKmIL098yf-15" value="v2" style="outlineConnect=0;dashed=0;verticalLabelPosition=bottom;verticalAlign=top;align=center;html=1;shape=mxgraph.aws3.ec2;fillColor=#33FF33;gradientColor=none;" vertex="1" parent="1">
          <mxGeometry x="1291.62" y="320" width="76.5" height="93" as="geometry" />
        </mxCell>
        <mxCell id="jfRhlss4ofMKmIL098yf-16" value="v2" style="outlineConnect=0;dashed=0;verticalLabelPosition=bottom;verticalAlign=top;align=center;html=1;shape=mxgraph.aws3.ec2;fillColor=#33FF33;gradientColor=none;" vertex="1" parent="1">
          <mxGeometry x="1290" y="440" width="76.5" height="93" as="geometry" />
        </mxCell>
        <mxCell id="jfRhlss4ofMKmIL098yf-17" value="v2" style="outlineConnect=0;dashed=0;verticalLabelPosition=bottom;verticalAlign=top;align=center;html=1;shape=mxgraph.aws3.ec2;fillColor=#33ff33;gradientColor=none;" vertex="1" parent="1">
          <mxGeometry x="1293.25" y="560" width="76.5" height="93" as="geometry" />
        </mxCell>
        <mxCell id="jfRhlss4ofMKmIL098yf-18" value="v2" style="outlineConnect=0;dashed=0;verticalLabelPosition=bottom;verticalAlign=top;align=center;html=1;shape=mxgraph.aws3.ec2;fillColor=#33ff33;gradientColor=none;" vertex="1" parent="1">
          <mxGeometry x="1293.25" y="680" width="76.5" height="93" as="geometry" />
        </mxCell>
        <mxCell id="jfRhlss4ofMKmIL098yf-31" value="Terminated" style="text;html=1;align=center;verticalAlign=middle;resizable=0;points=[];autosize=1;strokeColor=none;fillColor=none;" vertex="1" parent="1">
          <mxGeometry x="1291.5" y="831.5" width="80" height="30" as="geometry" />
        </mxCell>
        <mxCell id="jfRhlss4ofMKmIL098yf-32" value="Terminated" style="text;html=1;align=center;verticalAlign=middle;resizable=0;points=[];autosize=1;strokeColor=none;fillColor=none;" vertex="1" parent="1">
          <mxGeometry x="1293.25" y="951.5" width="80" height="30" as="geometry" />
        </mxCell>
        <mxCell id="jfRhlss4ofMKmIL098yf-36" style="edgeStyle=orthogonalEdgeStyle;rounded=0;orthogonalLoop=1;jettySize=auto;html=1;" edge="1" parent="1" source="jfRhlss4ofMKmIL098yf-35" target="jfRhlss4ofMKmIL098yf-1">
          <mxGeometry relative="1" as="geometry" />
        </mxCell>
        <mxCell id="jfRhlss4ofMKmIL098yf-35" value="New instance" style="text;html=1;align=center;verticalAlign=middle;resizable=0;points=[];autosize=1;strokeColor=none;fillColor=none;" vertex="1" parent="1">
          <mxGeometry x="240" y="831.5" width="100" height="30" as="geometry" />
        </mxCell>
        <mxCell id="jfRhlss4ofMKmIL098yf-38" style="edgeStyle=orthogonalEdgeStyle;rounded=0;orthogonalLoop=1;jettySize=auto;html=1;entryX=0;entryY=0.5;entryDx=0;entryDy=0;entryPerimeter=0;" edge="1" parent="1" source="jfRhlss4ofMKmIL098yf-37" target="jfRhlss4ofMKmIL098yf-2">
          <mxGeometry relative="1" as="geometry" />
        </mxCell>
        <mxCell id="jfRhlss4ofMKmIL098yf-37" value="New instance" style="text;html=1;align=center;verticalAlign=middle;resizable=0;points=[];autosize=1;strokeColor=none;fillColor=none;" vertex="1" parent="1">
          <mxGeometry x="238.25" y="951.5" width="100" height="30" as="geometry" />
        </mxCell>
      </root>
    </mxGraphModel>
  </diagram>
</mxfile>
